<?xml version="1.0" standalone="no"?>
<!DOCTYPE svg PUBLIC "-//W3C//DTD SVG 20010904//EN"
 "http://www.w3.org/TR/2001/REC-SVG-20010904/DTD/svg10.dtd">
<svg version="1.0" xmlns="http://www.w3.org/2000/svg"
 width="1480.000000pt" height="1480.000000pt" viewBox="0 0 1480.000000 1480.000000"
 preserveAspectRatio="xMidYMid meet">
<metadata>
Created by potrace 1.11, written by Peter Selinger 2001-2013
</metadata>
<g transform="translate(0.000000,1480.000000) scale(0.100000,-0.100000)"
fill="#000000" stroke="none">
<path d="M9173 12072 c-205 -73 -270 -322 -127 -482 71 -78 110 -95 224 -95
114 0 153 17 223 95 136 152 85 390 -102 473 -64 28 -154 32 -218 9z"/>
<path d="M10865 12081 c-225 -58 -310 -322 -159 -491 65 -71 111 -92 210 -98
72 -4 89 -1 135 20 65 30 121 84 151 147 19 37 23 63 23 131 0 76 -3 91 -30
139 -33 59 -78 101 -142 131 -49 23 -142 33 -188 21z"/>
<path d="M7688 11487 c-227 -64 -291 -358 -113 -515 116 -102 302 -96 408 13
85 87 112 224 65 327 -14 30 -40 70 -57 91 -66 75 -201 112 -303 84z"/>
<path d="M3535 11309 c-670 -63 -1334 -305 -1870 -682 -276 -195 -603 -499
-797 -742 -568 -714 -861 -1541 -862 -2435 0 -267 11 -396 54 -655 175 -1048
772 -1975 1655 -2571 510 -344 1075 -555 1718 -640 158 -21 580 -29 752 -15
276 23 544 74 810 152 861 256 1593 793 2113 1551 l87 127 220 167 c121 92
294 223 385 292 91 69 230 175 310 235 80 61 148 113 153 117 4 3 -11 35 -33
69 -54 83 -163 302 -185 371 -10 30 -21 59 -25 63 -4 4 -78 -13 -165 -38 -87
-25 -160 -43 -163 -41 -6 6 38 259 47 269 4 4 52 20 107 35 115 32 107 14 80
187 -9 61 -20 178 -23 261 l-6 152 -62 7 -62 6 -7 76 c-3 42 -6 98 -6 125 l0
50 85 -7 c83 -7 84 -7 89 16 3 13 15 65 26 115 23 109 59 225 100 324 17 40
29 74 27 76 -1 1 -111 57 -244 123 l-241 120 -42 128 c-23 70 -49 140 -56 155
-34 66 -20 61 336 -117 192 -96 354 -175 360 -175 5 0 22 21 37 48 45 76 166
234 238 311 60 63 66 73 54 88 -15 19 -605 668 -918 1011 -107 116 -198 212
-202 212 -4 0 -57 -53 -117 -117 -99 -106 -138 -151 -262 -301 l-35 -43 -75
96 c-59 75 -74 101 -72 123 2 15 4 65 5 112 1 71 -2 92 -21 128 -67 126 -205
187 -346 151 l-44 -11 -110 89 c-611 493 -1326 781 -2117 853 -129 12 -550 11
-680 -1z m-340 -3148 c28 -10 65 -25 83 -32 30 -13 35 -12 46 4 7 9 21 17 30
17 14 0 16 -16 16 -131 0 -119 -2 -130 -17 -127 -12 2 -24 22 -35 55 -39 123
-113 183 -225 183 -109 0 -183 -62 -183 -153 0 -83 58 -131 230 -192 245 -87
319 -157 320 -301 0 -84 -24 -145 -81 -208 -71 -78 -148 -111 -259 -110 -52 1
-101 7 -125 17 -22 8 -62 24 -88 34 l-49 18 -18 -22 c-10 -13 -25 -23 -34 -23
-15 0 -16 18 -14 153 3 142 4 152 22 152 15 0 24 -15 41 -65 32 -93 49 -123
95 -162 48 -42 98 -58 176 -58 110 0 184 58 206 162 11 51 10 59 -13 104 -28
58 -84 95 -206 139 -231 83 -298 148 -297 290 0 88 27 148 91 205 77 68 189
87 288 51z m2012 -23 c6 -18 41 -114 78 -213 93 -253 170 -463 212 -580 20
-55 41 -103 47 -107 6 -4 32 -8 59 -8 40 0 47 -3 47 -20 0 -19 -7 -20 -205
-20 -198 0 -205 1 -205 20 0 18 7 20 59 20 33 0 62 3 64 8 3 4 -18 69 -46 145
l-50 137 -156 0 -156 0 -44 -128 c-24 -70 -46 -132 -48 -139 -3 -8 15 -13 59
-15 57 -3 63 -5 66 -25 3 -23 3 -23 -147 -23 l-151 0 0 25 c0 24 3 25 58 25
l57 0 119 328 c228 629 217 602 247 602 20 0 28 -7 36 -32z m-3245 10 c9 -7
105 -155 214 -328 108 -173 203 -322 210 -330 12 -12 14 31 12 300 l-3 315
-70 5 c-56 4 -70 8 -73 23 -3 16 10 17 162 17 159 0 166 -1 166 -20 0 -18 -7
-20 -65 -20 l-65 0 -2 -462 -3 -463 -25 -3 c-22 -2 -32 8 -76 80 -28 46 -140
225 -249 398 -109 173 -206 329 -217 345 -18 29 -18 22 -18 -367 l0 -398 70 0
c68 0 70 -1 70 -25 l0 -25 -166 0 -165 0 3 23 c3 20 9 22 71 25 l67 3 0 434 0
435 -70 0 c-61 0 -70 2 -70 18 0 10 3 22 7 25 12 13 268 8 285 -5z m4459 -20
c175 -57 287 -179 324 -355 19 -86 18 -132 0 -211 -43 -180 -169 -315 -334
-358 -68 -17 -161 -21 -423 -16 -149 2 -158 3 -158 22 0 17 8 19 68 22 l67 3
0 435 0 435 -67 3 c-59 3 -68 5 -68 22 0 18 10 20 113 23 61 2 177 3 257 2
121 -3 157 -7 221 -27z m-4971 2 c0 -18 -7 -20 -70 -20 l-70 0 0 -435 0 -435
70 0 c68 0 70 -1 70 -25 l0 -25 -221 0 -220 0 3 23 c3 20 9 22 71 25 l67 3 0
434 0 435 -70 0 c-63 0 -70 2 -70 20 0 19 7 20 220 20 213 0 220 -1 220 -20z
m3010 -106 c0 -121 -1 -125 -21 -122 -15 2 -25 18 -39 57 -22 65 -47 100 -91
126 -28 16 -57 20 -171 23 l-138 4 0 -202 0 -203 80 5 c72 4 84 8 111 34 18
17 36 50 45 81 9 32 21 53 30 53 12 0 14 -33 14 -201 0 -180 -2 -200 -16 -197
-11 2 -22 22 -30 57 -26 101 -75 136 -182 129 l-47 -3 -3 -212 -2 -213 139 0
c77 0 152 5 168 11 65 24 118 106 137 212 5 28 12 37 26 37 19 0 20 -8 20
-155 l0 -155 -390 0 -390 0 0 25 c0 24 2 25 70 25 l70 0 0 435 0 435 -70 0
c-63 0 -70 2 -70 20 0 20 7 20 375 20 l375 0 0 -126z m-812 -1429 c91 -27 202
-137 219 -217 3 -16 8 -28 12 -28 3 0 17 26 30 57 29 67 100 140 167 174 l49
24 1303 3 1302 2 0 -25 0 -25 -1282 -2 -1283 -3 -56 -26 c-100 -47 -155 -124
-187 -262 -15 -63 -18 -68 -41 -65 -21 3 -26 12 -41 74 -22 94 -66 171 -124
215 -89 68 7 63 -1413 67 l-1293 2 0 25 0 25 1293 0 c1128 0 1300 -2 1345 -15z"/>
<path d="M5100 7914 c-39 -102 -120 -328 -120 -335 0 -5 61 -9 136 -9 126 0
136 1 129 18 -4 9 -34 91 -67 182 -33 91 -61 167 -64 169 -2 2 -8 -9 -14 -25z"/>
<path d="M6120 7671 l0 -441 93 0 c120 0 186 19 241 70 88 81 127 194 127 365
0 169 -39 285 -121 359 -67 60 -119 79 -237 84 l-103 5 0 -442z"/>
<path d="M9790 11309 c-155 -13 -316 -36 -480 -69 -157 -32 -459 -115 -474
-130 -5 -5 -2 -28 9 -57 19 -50 292 -756 471 -1216 57 -147 104 -271 104 -275
0 -4 4 -13 9 -20 6 -11 26 -9 102 12 126 34 246 55 360 64 l94 7 3 848 2 847
-47 -1 c-27 -1 -95 -6 -153 -10z"/>
<path d="M10240 10470 l0 -850 35 0 c82 0 401 -62 486 -95 12 -4 74 147 313
770 164 426 299 782 300 791 4 51 -631 197 -954 219 -47 3 -106 8 -132 11
l-48 5 0 -851z"/>
<path d="M8395 10926 c-281 -140 -589 -337 -748 -478 l-48 -43 551 -605 c304
-333 560 -613 569 -623 17 -18 22 -16 117 51 102 73 302 188 342 198 12 4 22
12 22 19 0 8 -24 76 -54 152 -30 76 -81 208 -114 293 -92 237 -170 439 -285
735 -57 149 -115 298 -128 333 -13 34 -26 62 -29 62 -3 0 -90 -43 -195 -94z"/>
<path d="M13554 10362 c-123 -44 -193 -146 -194 -283 0 -61 5 -85 26 -126 91
-184 332 -225 476 -81 64 64 83 111 83 208 0 73 -4 92 -27 135 -52 98 -136
153 -246 161 -49 3 -81 0 -118 -14z"/>
<path d="M12236 9583 l-564 -616 81 -96 c86 -100 174 -222 221 -303 l27 -47
752 375 c414 207 753 378 755 379 13 12 -224 377 -343 530 -124 160 -337 395
-357 395 -4 0 -261 -277 -572 -617z"/>
<path d="M12865 8673 c-412 -206 -749 -380 -748 -387 1 -6 25 -76 52 -156 28
-80 60 -196 72 -258 l22 -112 31 5 c17 3 135 14 261 25 127 11 365 34 530 50
165 16 426 41 580 55 153 14 280 27 281 28 5 5 -45 283 -71 402 -15 66 -54
202 -86 302 -59 180 -155 424 -168 422 -3 0 -343 -169 -756 -376z"/>
<path d="M14255 8943 c-217 -78 -274 -355 -104 -507 60 -54 121 -76 208 -76
249 0 385 306 220 494 -79 89 -217 127 -324 89z"/>
<path d="M13790 7659 c-47 -5 -323 -32 -615 -59 -291 -28 -610 -58 -709 -68
l-178 -17 -4 -135 c-2 -74 -13 -195 -24 -269 -11 -74 -18 -136 -16 -138 1 -2
167 -50 367 -107 200 -58 562 -161 803 -230 242 -70 443 -123 447 -119 11 12
67 293 84 429 19 149 33 460 27 612 l-4 112 -47 -1 c-25 -1 -84 -6 -131 -10z"/>
<path d="M14390 7303 c-67 -24 -154 -115 -174 -183 -46 -153 23 -310 162 -373
71 -32 180 -29 248 6 65 33 108 76 142 141 22 42 27 64 27 126 0 125 -59 219
-170 272 -70 33 -160 37 -235 11z"/>
<path d="M12151 6669 c-33 -89 -112 -253 -164 -341 l-46 -78 387 -292 c213
-160 515 -388 671 -506 l284 -215 18 24 c83 110 260 430 344 624 55 124 149
375 143 380 -2 2 -75 23 -163 48 -88 25 -374 106 -635 182 -261 75 -513 147
-560 160 -47 13 -123 35 -169 49 -47 15 -85 26 -86 26 -1 0 -12 -27 -24 -61z"/>
<path d="M13950 5743 c-69 -25 -152 -114 -174 -187 -72 -229 141 -442 370
-370 77 24 162 105 187 178 48 139 -9 286 -140 363 -58 34 -173 42 -243 16z"/>
<path d="M11095 5493 c-118 -61 -237 -110 -336 -139 -52 -15 -97 -30 -101 -33
-4 -4 8 -87 27 -186 18 -99 61 -326 95 -505 34 -179 84 -444 111 -590 28 -146
55 -291 61 -322 8 -44 15 -58 28 -58 21 0 207 52 330 92 298 97 747 310 737
349 -3 9 -76 133 -164 275 -88 143 -281 455 -428 694 -147 239 -273 440 -279
447 -8 9 -28 3 -81 -24z"/>
<path d="M8990 5392 c-36 -59 -234 -378 -439 -710 -205 -331 -371 -609 -368
-616 7 -18 324 -174 477 -234 214 -85 605 -200 621 -183 3 3 23 96 44 206 20
110 56 304 80 430 93 494 186 991 188 1004 1 9 -12 18 -33 24 -113 30 -308
101 -389 141 -51 25 -98 46 -105 46 -6 0 -40 -48 -76 -108z"/>
<path d="M9845 5250 c-2 -3 -17 -78 -34 -165 -16 -88 -57 -306 -91 -485 -34
-179 -83 -442 -110 -585 -27 -143 -56 -294 -63 -337 l-14 -76 31 -6 c192 -35
743 -42 971 -13 72 10 142 20 156 23 l26 5 -19 102 c-18 96 -41 221 -172 912
-30 160 -69 366 -86 460 -17 93 -33 171 -34 173 -2 1 -77 -3 -167 -9 -108 -7
-203 -8 -277 -2 -63 5 -115 6 -117 3z"/>
<path d="M11683 3632 c-67 -24 -118 -64 -154 -120 -42 -66 -52 -106 -47 -186
8 -116 61 -197 164 -247 197 -97 416 30 431 250 9 123 -62 243 -172 292 -66
29 -159 34 -222 11z"/>
<path d="M8408 3600 c-82 -24 -166 -110 -193 -196 -45 -143 27 -305 164 -367
71 -33 179 -30 253 6 177 87 223 320 93 465 -65 72 -130 102 -219 101 -39 0
-83 -4 -98 -9z"/>
<path d="M10045 3301 c-93 -24 -163 -82 -202 -168 -21 -46 -24 -66 -21 -131 5
-94 25 -140 91 -204 113 -111 292 -109 408 5 58 57 83 119 83 207 1 87 -21
144 -78 208 -61 67 -193 106 -281 83z"/>
</g>
</svg>
