<svg xmlns="http://www.w3.org/2000/svg" xmlns:xlink="http://www.w3.org/1999/xlink" viewBox="0 0 470.2 468.88"><defs><style>.cls-1{fill:url(#linear-gradient);}.cls-2{fill:#fff;}.cls-3{fill:#ea1c2d;}.cls-4{fill:#1a3668;}.cls-5{fill:#00558a;}.cls-6{fill:#40ae49;}.cls-7{fill:#007dbb;}.cls-8{fill:#48773c;}.cls-9{fill:#cd8b2a;}.cls-10{fill:#f99d25;}.cls-11{fill:#e01a83;}.cls-12{fill:#f36e24;}.cls-13{fill:#8f1838;}.cls-14{fill:#fdb714;}.cls-15{fill:#00add8;}.cls-16{fill:#ef412a;}.cls-17{fill:#c22033;}.cls-18{fill:#2d9a47;}.cls-19{fill:#d19f2a;}</style><linearGradient id="linear-gradient" x1="163.58" y1="539.41" x2="308.86" y2="684.69" gradientTransform="matrix(1, 0, 0, -1, 0, 845.36)" gradientUnits="userSpaceOnUse"><stop offset="0" stop-color="#06a070"/><stop offset="0.58" stop-color="#03694d"/><stop offset="1" stop-color="#025649"/></linearGradient></defs><title>INSEAD SDG</title><g id="Layer_2" data-name="Layer 2"><g id="Layer_1-2" data-name="Layer 1"><g id="Layer_2-2" data-name="Layer 2"><g id="Layer_1-2-2" data-name="Layer 1-2"><circle class="cls-1" cx="235.1" cy="234.44" r="99.34"/><path class="cls-2" d="M250.53,233h-1c-.16.94-.35,3.54-1.93,5.14-1.41,1.44-2.58,1.56-4.42,1.56h-5.12V228.59h2.28c3.1,0,3.53,2.25,4,4.69h.89V223.2h-.85c-.5,2.54-.82,4.39-4.47,4.39h-1.87V217.31h5c4.71,0,5.19,3.35,5.76,5.44h1V216.2H230.58v1.11h3.63v22.4h-3.63v1.11h19.95ZM209,239.72c1.34,0,2.3,1.76,6.7,1.76a8.68,8.68,0,0,0,6.25-2.57,7.81,7.81,0,0,0,2.33-5.49c0-9-14.19-6.37-14.19-12.68,0-2.8,2.45-4.13,4.81-4.13,3.66,0,5.48,3,6.11,6.19h1v-6.6h-.94c-.12.77-.37,1-.69,1-.8,0-2.46-1.61-5.46-1.61a6.88,6.88,0,0,0-7.19,7c0,6.91,8.55,6.41,12.06,9.52a4.07,4.07,0,0,1,1.38,3.12,5,5,0,0,1-1.14,3.27,5.35,5.35,0,0,1-4.32,1.91c-4.83,0-6.48-3-7.44-7.4h-1.09v7.81h.94c.14-1,.64-1.11.89-1.11m22.63,19.61c2,2.05,2.48,5.19,2.73,6.7h1.29c.25-1.51.71-4.65,2.73-6.7s4.71-2.37,6.8-2.37h62.72V255.6H245.12c-3.38,0-5.45.43-7.74,2.76a8.76,8.76,0,0,0-2.38,4.89,8.76,8.76,0,0,0-2.38-4.89c-2.29-2.33-4.37-2.76-7.74-2.76H161.7V257h63.12c2.12,0,4.65.17,6.8,2.37m-44.76-19.61h-3.57v-20.6L197.05,241h1.2V217.31h3.57V216.2h-8.36v1.11h3.59v16.52L186,216.2h-7.44v1.11h3.58v22.4h-3.58v1.11h8.34Zm-14.09,0H169.2v-22.4h3.57v-1.11H161.7v1.11h3.63v22.4H161.7v1.11h11.07Zm122,1.27c4.12,0,7.18-.59,10.17-3.62a12.15,12.15,0,0,0,3.52-8.66,12,12,0,0,0-4.51-9.77,14.62,14.62,0,0,0-9.33-2.83c-2,0-4.08.1-6.11.1h-3.8v1.11h3.57v22.41h-3.57v1.1h3.32c3.6,0,5.33.15,6.77.15m-2.67-23.72c.4,0,1.49,0,2.48,0a8.87,8.87,0,0,1,7.3,3.27c1.63,2.19,2.23,5.47,2.23,8.37,0,4.15-1.38,7.28-3,9s-3.83,2.11-6.4,2.11c-.94,0-2.58-.15-2.58-.15Zm-28.93,22.46h-3.38l2.63-7.45h7.94l2.68,7.45h-3.38v1.11h10.52v-1.11h-2.91l-8.79-24H267.3l-8.73,24h-2.93v1.11h7.61Zm3.23-18.39,3.58,9.83h-7.15Z"/></g></g><path class="cls-3" d="M242,38.58v84.74a108.81,108.81,0,0,1,27.09,5.23l30.43-79.08A193.05,193.05,0,0,0,242,38.58Z"/><circle class="cls-3" cx="276.78" cy="15.17" r="15.11" transform="translate(260.31 291.88) rotate(-89.73)"/><path class="cls-4" d="M171.47,49.13l30.64,79a108.3,108.3,0,0,1,27.65-4.92V38.52A193.32,193.32,0,0,0,171.47,49.13Z"/><circle class="cls-4" cx="193.84" cy="15.11" r="15.11" transform="translate(165.04 207.4) rotate(-85.94)"/><path class="cls-5" d="M160,53.51A194.13,194.13,0,0,0,110.1,84.1l57.09,62.6a109.8,109.8,0,0,1,23.47-14.2Z"/><circle class="cls-5" cx="118.86" cy="44.63" r="15.11" transform="translate(6.33 103.42) rotate(-48.16)"/><path class="cls-6" d="M101,92.27a195.59,195.59,0,0,0-36.22,47.14l75.87,37.8A110.16,110.16,0,0,1,158,154.83Z"/><circle class="cls-6" cx="58.64" cy="99.6" r="15.11" transform="translate(-43.47 153.76) rotate(-87.45)"/><path class="cls-7" d="M42.48,207.7l84.44,7.57A108.53,108.53,0,0,1,135,188.09L59.21,150.33A192.76,192.76,0,0,0,42.48,207.7Z"/><circle class="cls-7" cx="23.19" cy="171.16" r="15.11" transform="translate(-149.1 158.87) rotate(-78.2)"/><path class="cls-8" d="M125.69,227.44l-84.37-7.55c-.26,4.18-.42,8.4-.42,12.66a194.49,194.49,0,0,0,5.74,46.92l81.48-23.37a109.5,109.5,0,0,1-2.56-23.55C125.56,230.84,125.61,229.14,125.69,227.44Z"/><circle class="cls-8" cx="15.11" cy="252.74" r="15.11" transform="translate(-237.94 244.37) rotate(-84.68)"/><path class="cls-9" d="M50,291.25A193,193,0,0,0,76.89,345l67.44-51.25a109,109,0,0,1-12.91-25.87Z"/><circle class="cls-9" cx="37.36" cy="330.9" r="15.11" transform="translate(-280.83 232.69) rotate(-66.41)"/><path class="cls-10" d="M151.75,303.5,84.32,354.75a195.65,195.65,0,0,0,44,39.89l44.53-72A110.93,110.93,0,0,1,151.75,303.5Z"/><circle class="cls-10" cx="86.58" cy="396.06" r="15.11" transform="translate(-317.82 424.85) rotate(-81.74)"/><path class="cls-11" d="M138.77,401.07a192.89,192.89,0,0,0,55.75,21.31l15.68-83.23A108.45,108.45,0,0,1,183.33,329Z"/><circle class="cls-11" cx="155.35" cy="438.75" r="15.11" transform="translate(-12.35 4.57) rotate(-1.62)"/><path class="cls-12" d="M266.46,424.09l-15.68-83.25A109.46,109.46,0,0,1,235,342a111.47,111.47,0,0,1-12.74-.75l-15.69,83.32a195.34,195.34,0,0,0,59.89-.47Z"/><circle class="cls-12" cx="235.9" cy="453.76" r="15.11" transform="translate(-180.29 156.56) rotate(-27)"/><path class="cls-13" d="M288.74,327.86a108.58,108.58,0,0,1-26,10.55l15.7,83.32a192.93,192.93,0,0,0,54.74-21.84Z"/><circle class="cls-13" cx="318.06" cy="437.69" r="15.11" transform="translate(-16.57 12.54) rotate(-2.2)"/><path class="cls-14" d="M387,352.74l-67.49-50.89A110.73,110.73,0,0,1,299,321.17l44.48,72A195,195,0,0,0,387,352.74Z"/><circle class="cls-14" cx="385.74" cy="394.43" r="15.11" transform="translate(-38.35 41.56) rotate(-5.88)"/><path class="cls-15" d="M338.68,267.62A109.2,109.2,0,0,1,326.84,292l67.65,51a193.24,193.24,0,0,0,25.6-52Z"/><circle class="cls-15" cx="432.95" cy="331.19" r="15.11" transform="translate(-0.96 1.26) rotate(-0.17)"/><path class="cls-16" d="M344.36,228.6c.05,1.32.08,2.63.08,4a108.23,108.23,0,0,1-2.51,23.27l81.47,23.41a193.25,193.25,0,0,0,5.7-46.68c0-4-.14-8-.38-11.92Z"/><path class="cls-16" d="M459.38,238.83a15.11,15.11,0,1,0,10.19,18.79A15.11,15.11,0,0,0,459.38,238.83Z"/><path class="cls-17" d="M335.67,189.62a108.85,108.85,0,0,1,7.59,26.79l84.35-8a192.47,192.47,0,0,0-16.12-56.63Z"/><circle class="cls-17" cx="447.79" cy="171.64" r="15.11" transform="translate(-30.7 139.64) rotate(-17.15)"/><path class="cls-18" d="M370.61,93.83,313.4,156.28a109.71,109.71,0,0,1,16.83,22.38L406,140.87A195,195,0,0,0,370.61,93.83Z"/><circle class="cls-18" cx="412.87" cy="100.44" r="15.11" transform="translate(-12.01 95.19) rotate(-12.97)"/><path class="cls-19" d="M280.48,133a109.12,109.12,0,0,1,23.92,15l57.21-62.46a195.07,195.07,0,0,0-50.7-31.63Z"/><circle class="cls-19" cx="351.89" cy="44.61" r="15.11" transform="translate(105.39 299.66) rotate(-53.2)"/></g></g></svg>