<svg xmlns="http://www.w3.org/2000/svg" xmlns:xlink="http://www.w3.org/1999/xlink" viewBox="0 0 739.76 468.88"><defs><style>.cls-1{fill:#ea1c2d;}.cls-2{fill:#1a3668;}.cls-3{fill:#00558a;}.cls-4{fill:#40ae49;}.cls-5{fill:#007dbb;}.cls-6{fill:#48773c;}.cls-7{fill:#cd8b2a;}.cls-8{fill:#f99d25;}.cls-9{fill:#e01a83;}.cls-10{fill:#f36e24;}.cls-11{fill:#8f1838;}.cls-12{fill:#fdb714;}.cls-13{fill:#00add8;}.cls-14{fill:#ef412a;}.cls-15{fill:#c22033;}.cls-16{fill:#2d9a47;}.cls-17{fill:#d19f2a;}.cls-18{fill:url(#linear-gradient);}.cls-19{fill:#fff;}</style><linearGradient id="linear-gradient" x1="54.39" y1="510.89" x2="338.42" y2="794.92" gradientTransform="matrix(1, 0, 0, -1, 0, 883.14)" gradientUnits="userSpaceOnUse"><stop offset="0" stop-color="#06a070"/><stop offset="0.58" stop-color="#03694d"/><stop offset="1" stop-color="#025649"/></linearGradient></defs><title>LOGO INSEADSDG</title><g id="Layer_2" data-name="Layer 2"><g id="Layer_1-2" data-name="Layer 1"><path class="cls-1" d="M511.56,38.58v84.74a108.9,108.9,0,0,1,27.09,5.23l30.42-79.08A192.93,192.93,0,0,0,511.56,38.58Z"/><circle class="cls-1" cx="546.35" cy="15.17" r="15.11" transform="translate(528.61 561.44) rotate(-89.73)"/><path class="cls-2" d="M441,49.13l30.64,79a108.3,108.3,0,0,1,27.64-4.92V38.52A193.26,193.26,0,0,0,441,49.13Z"/><circle class="cls-2" cx="463.41" cy="15.11" r="15.11" transform="translate(415.5 476.29) rotate(-85.94)"/><path class="cls-3" d="M429.61,53.51A194.13,194.13,0,0,0,379.67,84.1l57.09,62.6a109.8,109.8,0,0,1,23.47-14.2Z"/><circle class="cls-3" cx="388.43" cy="44.63" r="15.11" transform="translate(96.09 304.25) rotate(-48.16)"/><path class="cls-4" d="M370.54,92.27a195.59,195.59,0,0,0-36.22,47.14l75.87,37.8a110.16,110.16,0,0,1,17.4-22.38Z"/><circle class="cls-4" cx="328.21" cy="99.6" r="15.11" transform="translate(214.12 423.06) rotate(-87.45)"/><path class="cls-5" d="M312.05,207.7l84.44,7.57a108.11,108.11,0,0,1,8.08-27.18l-75.79-37.76A192.46,192.46,0,0,0,312.05,207.7Z"/><circle class="cls-5" cx="292.76" cy="171.16" r="15.11" transform="translate(65.35 422.74) rotate(-78.2)"/><path class="cls-6" d="M395.26,227.44l-84.37-7.55c-.26,4.18-.43,8.4-.43,12.66a194,194,0,0,0,5.75,46.92l81.48-23.37a109.5,109.5,0,0,1-2.56-23.55C395.13,230.84,395.18,229.14,395.26,227.44Z"/><circle class="cls-6" cx="284.68" cy="252.74" r="15.11" transform="translate(6.64 512.77) rotate(-84.68)"/><path class="cls-7" d="M319.56,291.25A193.29,193.29,0,0,0,346.46,345l67.44-51.25A108.66,108.66,0,0,1,401,267.89Z"/><circle class="cls-7" cx="306.92" cy="330.9" r="15.11" transform="translate(-119.15 479.73) rotate(-66.41)"/><path class="cls-8" d="M421.32,303.5l-67.43,51.25a195.6,195.6,0,0,0,44,39.89l44.54-72A110.93,110.93,0,0,1,421.32,303.5Z"/><circle class="cls-8" cx="356.14" cy="396.06" r="15.11" transform="translate(-86.97 691.62) rotate(-81.74)"/><path class="cls-9" d="M408.34,401.07a192.78,192.78,0,0,0,55.75,21.31l15.67-83.23A108.38,108.38,0,0,1,452.9,329Z"/><circle class="cls-9" cx="424.91" cy="438.75" r="15.11" transform="translate(-12.24 12.2) rotate(-1.62)"/><path class="cls-10" d="M536,424.09l-15.68-83.25A109.49,109.49,0,0,1,504.56,342a111.43,111.43,0,0,1-12.73-.75l-15.69,83.32a195.34,195.34,0,0,0,59.89-.47Z"/><circle class="cls-10" cx="505.47" cy="453.76" r="15.11" transform="translate(-150.91 278.94) rotate(-27)"/><path class="cls-11" d="M558.31,327.86a108.74,108.74,0,0,1-26,10.55L548,421.73a192.81,192.81,0,0,0,54.74-21.84Z"/><circle class="cls-11" cx="587.63" cy="437.69" r="15.11" transform="matrix(1, -0.04, 0.04, 1, -16.37, 22.89)"/><path class="cls-12" d="M656.61,352.74l-67.5-50.89a110.67,110.67,0,0,1-20.54,19.32l44.48,72A195,195,0,0,0,656.61,352.74Z"/><circle class="cls-12" cx="655.31" cy="394.43" r="15.11" transform="translate(-36.93 69.15) rotate(-5.88)"/><path class="cls-13" d="M608.25,267.62A109.64,109.64,0,0,1,596.41,292l67.65,51a193.54,193.54,0,0,0,25.6-52Z"/><circle class="cls-13" cx="702.52" cy="331.19" r="15.11" transform="translate(-0.96 2.04) rotate(-0.17)"/><path class="cls-14" d="M613.93,228.6c.05,1.32.08,2.63.08,4a108.23,108.23,0,0,1-2.51,23.27L693,279.23a193.75,193.75,0,0,0,5.69-46.68q0-6-.37-11.92Z"/><path class="cls-14" d="M729,238.83a15.11,15.11,0,1,0,10.19,18.79A15.11,15.11,0,0,0,729,238.83Z"/><path class="cls-15" d="M605.24,189.62a108.85,108.85,0,0,1,7.59,26.79l84.34-8a192.16,192.16,0,0,0-16.11-56.63Z"/><circle class="cls-15" cx="717.36" cy="171.64" r="15.11" transform="translate(-18.72 219.1) rotate(-17.15)"/><path class="cls-16" d="M640.18,93.83,583,156.28a109.67,109.67,0,0,1,16.82,22.38l75.82-37.79A195,195,0,0,0,640.18,93.83Z"/><circle class="cls-16" cx="682.43" cy="100.44" r="15.11" transform="translate(-5.14 155.67) rotate(-12.97)"/><path class="cls-17" d="M550,133A109.19,109.19,0,0,1,574,148l57.21-62.46a195,195,0,0,0-50.71-31.63Z"/><circle class="cls-17" cx="621.46" cy="44.61" r="15.11" transform="translate(213.48 515.51) rotate(-53.2)"/><g id="Layer_2-2" data-name="Layer 2"><g id="Layer_1-2-2" data-name="Layer 1-2"><circle class="cls-18" cx="194.21" cy="232.43" r="194.21"/><path class="cls-19" d="M224.39,229.66h-1.95c-.32,1.84-.7,6.92-3.78,10.05-2.76,2.8-5,3-8.64,3H200V221h4.46c6.07,0,6.9,4.39,7.86,9.16h1.74v-19.7H212.4c-1,5-1.61,8.57-8.73,8.57H200V198.94h9.71c9.21,0,10.14,6.56,11.25,10.64h1.93v-12.8H185.38v2.16h7.09v43.8h-7.09v2.17h39Zm-81.21,13.1c2.62,0,4.51,3.44,13.1,3.44a17,17,0,0,0,12.22-5,15.25,15.25,0,0,0,4.57-10.74c0-17.62-27.76-12.45-27.76-24.8,0-5.46,4.8-8.07,9.42-8.07,7.15,0,10.7,5.87,11.93,12.11h1.93v-12.9h-1.84c-.24,1.49-.73,1.87-1.35,1.87-1.57,0-4.81-3.15-10.68-3.15-7.48,0-14.05,5.15-14.05,13.78,0,13.51,16.71,12.55,23.57,18.61a8,8,0,0,1,2.7,6.11,9.76,9.76,0,0,1-2.23,6.4,10.52,10.52,0,0,1-8.44,3.73c-9.45,0-12.68-5.86-14.55-14.47h-2.13v15.26h1.83c.29-1.9,1.27-2.16,1.75-2.16m44.24,38.33c4,4,4.85,10.15,5.33,13.1h2.53c.49-2.95,1.39-9.09,5.33-13.1,4.25-4.31,9.23-4.62,13.3-4.62H336.54v-2.66H213.81c-6.61,0-10.66.83-15.14,5.38a17.16,17.16,0,0,0-4.65,9.58,17.1,17.1,0,0,0-4.65-9.58c-4.48-4.54-8.54-5.38-15.14-5.38H50.72v2.66h123.4c4.14,0,9.09.31,13.3,4.62M99.91,242.76h-7V202.49l26.9,42.82h2.33V198.94h7v-2.16H112.81v2.16h7v32.3L98.19,196.78H83.64v2.16h7v43.8h-7v2.17h16.3Zm-27.56,0h-7V199h7v-2.17H50.72V199H57.8v43.8H50.72v2.16H72.35Zm238.58,2.48c8.05,0,14.05-1.15,19.89-7.08a23.8,23.8,0,0,0,6.89-16.94c0-7.63-3-14.66-8.83-19.1-5.44-4.13-11.43-5.52-18.25-5.52-3.95,0-8,.2-11.93.2h-7.44V199h7v43.8h-7v2.16h6.51c7,0,10.4.29,13.22.29m-5.21-46.37c.77,0,2.91-.1,4.85-.1,5.26,0,10.8,1.76,14.26,6.4,3.2,4.27,4.37,10.68,4.37,16.35,0,8.11-2.7,14.24-5.92,17.52s-7.5,4.13-12.52,4.13c-1.84,0-5-.29-5-.29Zm-56.56,43.91h-6.61l5.14-14.58h15.52l5.24,14.58H261.9v2.16h20.57v-2.16h-5.69L259.6,195.89h-2.42l-17.07,46.87h-5.73v2.16h14.87Zm6.31-35.95,7,19.21h-14Z"/></g></g></g></g></svg>